<svg id="visual" viewBox="0 0 900 600" width="900" height="600" xmlns="http://www.w3.org/2000/svg" xmlns:xlink="http://www.w3.org/1999/xlink" version="1.1"><rect x="0" y="0" width="900" height="600" fill="#001220"></rect><path d="M0 412L21.5 417.5C43 423 86 434 128.8 429.3C171.7 424.7 214.3 404.3 257.2 401C300 397.7 343 411.3 385.8 414C428.7 416.7 471.3 408.3 514.2 403C557 397.7 600 395.3 642.8 395.5C685.7 395.7 728.3 398.3 771.2 396.7C814 395 857 389 878.5 386L900 383L900 601L878.5 601C857 601 814 601 771.2 601C728.3 601 685.7 601 642.8 601C600 601 557 601 514.2 601C471.3 601 428.7 601 385.8 601C343 601 300 601 257.2 601C214.3 601 171.7 601 128.8 601C86 601 43 601 21.5 601L0 601Z" fill="#00cc99"></path><path d="M0 413L21.5 421C43 429 86 445 128.8 447.3C171.7 449.7 214.3 438.3 257.2 433.5C300 428.7 343 430.3 385.8 432.7C428.7 435 471.3 438 514.2 444.3C557 450.7 600 460.3 642.8 466.8C685.7 473.3 728.3 476.7 771.2 468.3C814 460 857 440 878.5 430L900 420L900 601L878.5 601C857 601 814 601 771.2 601C728.3 601 685.7 601 642.8 601C600 601 557 601 514.2 601C471.3 601 428.7 601 385.8 601C343 601 300 601 257.2 601C214.3 601 171.7 601 128.8 601C86 601 43 601 21.5 601L0 601Z" fill="#00c1d9"></path><path d="M0 497L21.5 496.7C43 496.3 86 495.7 128.8 497C171.7 498.3 214.3 501.7 257.2 493.3C300 485 343 465 385.8 463.8C428.7 462.7 471.3 480.3 514.2 479.5C557 478.7 600 459.3 642.8 461C685.7 462.7 728.3 485.3 771.2 489.7C814 494 857 480 878.5 473L900 466L900 601L878.5 601C857 601 814 601 771.2 601C728.3 601 685.7 601 642.8 601C600 601 557 601 514.2 601C471.3 601 428.7 601 385.8 601C343 601 300 601 257.2 601C214.3 601 171.7 601 128.8 601C86 601 43 601 21.5 601L0 601Z" fill="#00abf3"></path><path d="M0 517L21.5 512.7C43 508.3 86 499.7 128.8 496.7C171.7 493.7 214.3 496.3 257.2 496.3C300 496.3 343 493.7 385.8 498.8C428.7 504 471.3 517 514.2 515.5C557 514 600 498 642.8 498.2C685.7 498.3 728.3 514.7 771.2 522.2C814 529.7 857 528.3 878.5 527.7L900 527L900 601L878.5 601C857 601 814 601 771.2 601C728.3 601 685.7 601 642.8 601C600 601 557 601 514.2 601C471.3 601 428.7 601 385.8 601C343 601 300 601 257.2 601C214.3 601 171.7 601 128.8 601C86 601 43 601 21.5 601L0 601Z" fill="#008dff"></path><path d="M0 528L21.5 532.5C43 537 86 546 128.8 548C171.7 550 214.3 545 257.2 547C300 549 343 558 385.8 562.8C428.7 567.7 471.3 568.3 514.2 568C557 567.7 600 566.3 642.8 564C685.7 561.7 728.3 558.3 771.2 553C814 547.7 857 540.3 878.5 536.7L900 533L900 601L878.5 601C857 601 814 601 771.2 601C728.3 601 685.7 601 642.8 601C600 601 557 601 514.2 601C471.3 601 428.7 601 385.8 601C343 601 300 601 257.2 601C214.3 601 171.7 601 128.8 601C86 601 43 601 21.5 601L0 601Z" fill="#0066ff"></path></svg>